<?xml version="1.0" encoding="utf-8"?>
<!-- Generator: Adobe Illustrator 16.0.0, SVG Export Plug-In . SVG Version: 6.00 Build 0)  -->
<!DOCTYPE svg PUBLIC "-//W3C//DTD SVG 1.1//EN" "http://www.w3.org/Graphics/SVG/1.1/DTD/svg11.dtd">
<svg version="1.1" id="Layer_1" xmlns="http://www.w3.org/2000/svg" xmlns:xlink="http://www.w3.org/1999/xlink" x="0px" y="0px"
	 width="60em" height="35em" viewBox="0 0 960 560" enable-background="new 0 0 960 560" xml:space="preserve">
<circle fill="#CA4A9A" cx="104.251" cy="54.501" r="8.6"/>
<circle fill="#CC594A" cx="93.895" cy="50.211" r="8.601"/>
<circle fill="#CDB245" cx="89.605" cy="39.854" r="8.6"/>
<g>
	<circle opacity="0.5" fill="#CA4A9A" cx="40.251" cy="54.501" r="8.6"/>
	<circle opacity="0.5" fill="#7CC154" cx="29.895" cy="29.497" r="8.601"/>
	<circle opacity="0.5" fill="#9562A8" cx="50.609" cy="50.211" r="8.601"/>
	<circle opacity="0.5" fill="#CC594A" cx="29.895" cy="50.211" r="8.601"/>
	<circle opacity="0.5" fill="#47BFCC" cx="50.609" cy="29.495" r="8.601"/>
	<circle opacity="0.5" fill="#CDB245" cx="25.605" cy="39.854" r="8.6"/>
	<circle opacity="0.5" fill="#5967AF" cx="54.899" cy="39.854" r="8.6"/>
	<circle opacity="0.5" fill="#59BC79" cx="40.251" cy="25.207" r="8.6"/>
</g>
<circle fill="#7CC154" cx="93.895" cy="29.497" r="8.601"/>
<circle fill="#9562A8" cx="114.609" cy="50.211" r="8.601"/>
<circle fill="#5967AF" cx="118.899" cy="39.854" r="8.6"/>
<circle fill="#47BFCC" cx="114.609" cy="29.495" r="8.601"/>
<circle fill="#59BC79" cx="104.251" cy="25.207" r="8.6"/>
<circle opacity="0.5" fill="#CA4A9A" cx="152.887" cy="89.404" r="8.6"/>
<circle opacity="0.5" fill="#7CC154" cx="249.229" cy="89.404" r="8.601"/>
<circle opacity="0.5" fill="#9562A8" cx="121.9" cy="89.404" r="8.601"/>
<circle opacity="0.5" fill="#CC594A" cx="185.831" cy="89.405" r="8.601"/>
<circle opacity="0.5" fill="#47BFCC" cx="57.45" cy="89.791" r="8.601"/>
<circle opacity="0.5" fill="#CDB245" cx="217.033" cy="89.791" r="8.6"/>
<circle opacity="0.5" fill="#5967AF" cx="89.505" cy="89.404" r="8.6"/>
<circle opacity="0.5" fill="#59BC79" cx="25.314" cy="89.791" r="8.6"/>
<circle fill="#CA4A9A" cx="152.887" cy="121.404" r="8.6"/>
<circle fill="#7CC154" cx="249.229" cy="121.404" r="8.601"/>
<circle fill="#9562A8" cx="121.9" cy="121.404" r="8.601"/>
<circle fill="#CC594A" cx="185.831" cy="121.405" r="8.601"/>
<circle fill="#47BFCC" cx="57.45" cy="121.791" r="8.601"/>
<circle fill="#CDB245" cx="217.033" cy="121.791" r="8.6"/>
<circle fill="#5967AF" cx="89.505" cy="121.404" r="8.6"/>
<circle fill="#59BC79" cx="25.314" cy="121.791" r="8.6"/>
</svg>
